Patient4_TMGait_0pt5_02_right_44_GRF.mot
version=1
nRows=45
nColumns=19
inDegrees=no
endheader
time	F1x	F1y	F1z	M1x	M1y	M1z	F2x	F2y	F2z	M2x	M2y	M2z	EC1x	EC1y	EC1z	EC2x	EC2y	EC2z
57.37	30.2872	783.069	54.7075	-278.676	-41.8431	697.7009	22.5858	-9.0808	5.961	-4.8509	-9.6244	-20.4075	-0.0592	0.0182	-0.0073	-0.0462	0.0165	0.9585
57.3833	27.633	776.4649	59.8731	-276.4856	-46.3818	692.7107	15.0653	-5.4001	3.9893	-2.9348	-6.4251	-13.0455	-0.0592	0.0182	-0.0073	-0.0462	0.0165	0.9585
57.3966	25.4961	769.3188	63.5698	-274.2017	-49.4466	686.0321	8.686	-2.208	2.3219	-1.2924	-3.6992	-6.7171	-0.0592	0.0182	-0.0073	-0.0462	0.0165	0.9585
57.4099	23.9635	762.2848	65.5753	-272.0444	-50.8569	678.2398	3.7919	0.3071	1.0574	-0.017782	-1.6062	-1.776	-0.0592	0.0182	-0.0073	-0.0462	0.0165	0.9585
57.4231	22.9759	755.9409	65.9764	-270.1943	-50.7228	670.0274	0.39602	2.1075	0.18331	0.88138	-0.14219	1.721	-0.0592	0.0182	-0.0073	-0.0462	0.0165	0.9585
57.4364	22.4391	750.6506	65.1035	-268.7463	-49.3606	661.9693	-1.7343	3.2787	-0.35187	1.4522	0.78067	3.9617	-0.0592	0.0182	-0.0073	-0.0462	0.0165	0.9585
57.4497	22.2256	746.5346	63.3669	-267.7044	-47.1626	654.4504	-2.9069	3.9364	-0.62625	1.7572	1.2875	5.2154	-0.0592	0.0182	-0.0073	-0.0462	0.0165	0.9585
57.463	22.2488	743.4576	61.1654	-266.9893	-44.5024	647.5737	-3.3967	4.1552	-0.71328	1.847	1.4955	5.6786	-0.0592	0.0182	-0.0073	-0.0462	0.0165	0.9585
57.4763	22.4643	741.1519	58.8419	-266.4796	-41.6931	641.2693	-3.4992	4.0033	-0.68426	1.763	1.5251	5.558	-0.0592	0.0182	-0.0073	-0.0462	0.0165	0.9585
57.4896	22.8877	739.2995	56.6189	-266.0513	-38.925	635.3505	-3.3736	3.4607	-0.59661	1.5158	1.4544	4.9076	-0.0592	0.0182	-0.0073	-0.0462	0.0165	0.9585
57.5029	23.5403	737.6485	54.6528	-265.6138	-36.3278	629.6435	-3.177	2.5203	-0.49155	1.1082	1.3511	3.808	-0.0592	0.0182	-0.0073	-0.0462	0.0165	0.9585
57.5161	24.4534	736.0814	52.9995	-265.1363	-33.9442	624.0488	-2.9528	1.1223	-0.38669	0.52323	1.2326	2.226	-0.0592	0.0182	-0.0073	-0.0462	0.0165	0.9585
57.5294	25.6358	734.614	51.7016	-264.6367	-31.8137	618.5762	-2.7101	-0.76613	-0.28828	-0.24951	1.0964	0.14437	-0.0592	0.0182	-0.0073	-0.0462	0.0165	0.9585
57.5427	27.1091	733.3333	50.7395	-264.1596	-29.9197	613.2777	-2.4192	-3.1012	-0.19618	-1.1911	0.92455	-2.3764	-0.0592	0.0182	-0.0073	-0.0462	0.0165	0.9585
57.556	28.868	732.3386	50.0998	-263.7507	-28.2588	608.2174	-1.9688	-5.726	-0.10547	-2.2342	0.67426	-5.192	-0.0592	0.0182	-0.0073	-0.0462	0.0165	0.9585
57.5693	30.9268	731.6844	49.7321	-263.4349	-26.7824	603.4308	-1.2781	-8.218	-0.0022314	-3.2139	0.29754	-7.8594	-0.0592	0.0182	-0.0073	-0.0462	0.0165	0.9585
57.5826	33.3097	731.2881	49.6228	-263.18	-25.4699	598.8699	-0.19023	-9.865	0.12683	-3.845	-0.27149	-9.6695	-0.0592	0.0182	-0.0073	-0.0462	0.0165	0.9585
57.5959	36.0192	730.8727	49.752	-262.8765	-24.2975	594.3455	1.3891	-9.5099	0.29817	-3.6732	-1.0821	-9.4222	-0.0592	0.0182	-0.0073	-0.0462	0.0165	0.9585
57.6091	39.0482	729.9736	50.1369	-262.3429	-23.2772	589.5178	3.5333	-5.5645	0.51731	-2.0696	-2.1567	-5.4801	-0.0592	0.0182	-0.0073	-0.0462	0.0165	0.9585
57.6224	42.335	728.0326	50.7542	-261.367	-22.4005	584.003	6.2011	4.0026	0.77221	1.7679	-3.4537	4.2667	-0.0592	0.0182	-0.0073	-0.0462	0.0165	0.9585
57.6357	45.8158	724.4461	51.5605	-259.731	-21.6532	577.3902	9.1448	21.5152	1.0225	8.7534	-4.8213	22.2404	-0.0592	0.0182	-0.0073	-0.0462	0.0165	0.9585
57.649	49.3662	718.574	52.4114	-257.2143	-20.9564	569.2603	11.8671	49.184	1.1844	19.7575	-5.958	50.7363	-0.0592	0.0182	-0.0073	-0.0462	0.0165	0.9585
57.6623	52.8264	709.6744	53.108	-253.571	-20.2102	559.1105	13.4271	88.4966	1.1293	35.3556	-6.3511	91.3572	-0.0592	0.0182	-0.0073	-0.0462	0.0165	0.9585
57.6756	55.9908	696.8292	53.3892	-248.5083	-19.2805	546.2815	12.4638	139.1885	0.66658	55.4282	-5.2631	143.8974	-0.0592	0.0182	-0.0073	-0.0462	0.0165	0.9585
57.6889	58.6073	678.9799	53.0137	-241.6918	-18.0733	530.0053	7.5529	198.3647	-0.40875	78.8023	-1.9435	205.4697	-0.0592	0.0182	-0.0073	-0.0462	0.0165	0.9585
57.7021	60.4257	655.0322	51.7738	-232.7818	-16.5224	509.434	-1.3407	260.212	-2.3838	103.1424	3.8881	270.093	-0.0592	0.0182	-0.0073	-0.0462	0.0165	0.9585
57.7154	61.1884	624.1512	49.6155	-221.5204	-14.6889	483.9117	-12.4751	317.4966	-5.622	125.5798	11.8706	330.1323	-0.0592	0.0182	-0.0073	-0.0462	0.0165	0.9585
57.7287	60.6959	586.0536	46.624	-207.8248	-12.7116	453.1796	-24.0071	366.1746	-9.7656	144.5203	20.8679	381.153	-0.0592	0.0182	-0.0073	-0.0462	0.0165	0.9585
57.742	58.8069	541.116	43.044	-191.8168	-10.825	417.5118	-34.5506	406.2704	-14.1399	160.0043	29.6278	422.9697	-0.0592	0.0182	-0.0073	-0.0462	0.0165	0.9585
57.7553	55.5386	490.3231	39.0996	-173.8167	-9.1771	377.6347	-43.2328	439.7639	-18.1695	172.8553	37.2208	457.5591	-0.0592	0.0182	-0.0073	-0.0462	0.0165	0.9585
57.7686	50.9859	435.1574	34.9561	-154.3162	-7.8466	334.6519	-49.5705	468.9186	-21.497	184.0075	43.1098	487.1861	-0.0592	0.0182	-0.0073	-0.0462	0.0165	0.9585
57.7819	45.266	377.5186	30.6825	-133.9524	-6.8238	290.0129	-53.4607	495.6216	-24.0737	194.224	47.2176	513.732	-0.0592	0.0182	-0.0073	-0.0462	0.0165	0.9585
57.7951	38.5338	319.5455	26.4004	-113.4498	-6.1387	245.3295	-55.1134	521.3852	-26.1701	204.092	49.9204	538.7087	-0.0592	0.0182	-0.0073	-0.0462	0.0165	0.9585
57.8084	30.9696	263.4969	22.2241	-93.5862	-5.8003	202.3187	-55.0101	547.2801	-28.2455	214.0051	51.8886	563.2254	-0.0592	0.0182	-0.0073	-0.0462	0.0165	0.9585
57.8217	22.9021	211.4888	18.3295	-75.1058	-5.821	162.5393	-53.8231	573.865	-30.7327	224.1575	53.8241	587.8964	-0.0592	0.0182	-0.0073	-0.0462	0.0165	0.9585
57.835	14.799	165.2495	14.8593	-58.6311	-6.138	127.2497	-52.2127	601.2937	-33.8885	234.6	56.2407	612.9076	-0.0592	0.0182	-0.0073	-0.0462	0.0165	0.9585
57.8483	7.221	125.7825	11.9282	-44.5388	-6.6402	97.1498	-50.6857	629.4639	-37.7059	245.2956	59.3215	638.1836	-0.0592	0.0182	-0.0073	-0.0462	0.0165	0.9585
57.8616	0.69856	93.2578	9.5345	-32.9131	-7.1406	72.3014	-49.465	658.0044	-41.9365	256.1187	62.9027	663.3416	-0.0592	0.0182	-0.0073	-0.0462	0.0165	0.9585
57.8749	-4.4266	67.1904	7.612	-23.5976	-7.4746	52.3295	-48.5788	686.2311	-46.2422	266.8255	66.6491	687.7045	-0.0592	0.0182	-0.0073	-0.0462	0.0165	0.9585
57.8881	-7.9422	46.7144	6.0392	-16.2986	-7.4877	36.5636	-47.9092	713.1298	-50.3161	277.0402	70.2006	710.2848	-0.0592	0.0182	-0.0073	-0.0462	0.0165	0.9585
57.9014	-9.8064	30.9194	4.7046	-10.6943	-7.094	24.3523	-47.2753	737.404	-53.9144	286.2679	73.2421	729.8461	-0.0592	0.0182	-0.0073	-0.0462	0.0165	0.9585
57.9147	-10.0543	18.9644	3.515	-6.4807	-6.248	15.0677	-46.486	757.6835	-56.8363	293.9789	75.5026	745.1108	-0.0592	0.0182	-0.0073	-0.0462	0.0165	0.9585
57.928	-8.9034	10.1495	2.4331	-3.4	-5.0056	8.1869	-45.3679	772.8243	-58.9549	299.7264	76.7957	755.0555	-0.0592	0.0182	-0.0073	-0.0462	0.0165	0.9585
57.9413	-6.9236	4.021	1.4816	-1.2793	-3.5767	3.376	-43.7977	782.1675	-60.2312	303.2447	77.0468	759.1553	-0.0592	0.0182	-0.0073	-0.0462	0.0165	0.9585
57.9546	-4.759	0.18645	0.74118	0.032328	-2.2468	0.35155	-41.71	785.672	-60.6958	304.5093	76.2758	757.4857	-0.0592	0.0182	-0.0073	-0.0462	0.0165	0.9585
